<svg width="16" height="21" viewBox="0 0 16 21" fill="none" xmlns="http://www.w3.org/2000/svg">
<path d="M4.69505 13.2877C5.5223 13.2877 5.97648 12.7775 6.00081 11.8993L6.1468 4.08748C6.15491 3.97038 6.16302 3.84493 6.16302 3.75293C6.16302 2.80781 5.58719 2.24744 4.69505 2.24744C3.80292 2.24744 3.21898 2.80781 3.21898 3.75293C3.21898 3.84493 3.22709 3.97038 3.22709 4.08748L3.38118 11.8993C3.41363 12.7775 3.85969 13.2877 4.69505 13.2877ZM11.3212 13.2877C12.1484 13.2877 12.6107 12.7775 12.635 11.8993L12.781 4.08748C12.781 3.97038 12.7891 3.84493 12.7891 3.75293C12.7891 2.80781 12.2214 2.24744 11.3212 2.24744C10.429 2.24744 9.84509 2.80781 9.84509 3.75293C9.84509 3.84493 9.8532 3.97038 9.86131 4.08748L10.0154 11.8993C10.0397 12.7775 10.4858 13.2877 11.3212 13.2877ZM4.68694 18.2474C5.61963 18.2474 6.37388 17.5114 6.37388 16.583C6.37388 15.6547 5.61963 14.9103 4.68694 14.9103C3.75426 14.9103 3 15.6547 3 16.583C3 17.5114 3.75426 18.2474 4.68694 18.2474ZM11.3212 18.2474C12.2457 18.2474 13 17.5114 13 16.583C13 15.6547 12.2457 14.9103 11.3212 14.9103C10.3885 14.9103 9.62612 15.6547 9.62612 16.583C9.62612 17.5114 10.3885 18.2474 11.3212 18.2474Z" fill="#FF3B30"/>
</svg>
